<svg xmlns="http://www.w3.org/2000/svg" style="display: none;"><symbol id="icon-modpack-export" viewBox="0 0 32 32"><g class="nc-icon-wrapper"><path d="M31,4h-5.1842651C25.9277954,3.6856689,26,3.352356,26,3c0-1.6542969-1.3457031-3-3-3 c-1.9838867,0-3.243042,1.2846069-4,2.5198975C18.243042,1.2846069,16.9838867,0,15,0c-1.6542969,0-3,1.3457031-3,3 c0,0.352356,0.0722656,0.6856689,0.1843262,1H7C6.4472656,4,6,4.4477539,6,5v3c0,0.5522461,0.4472656,1,1,1h24 c0.5527344,0,1-0.4477539,1-1V5C32,4.4477539,31.5527344,4,31,4z M23,2c0.5517578,0,1,0.4487305,1,1s-0.4482422,1-1,1h-2.5429688 C20.9199219,3.0849609,21.7353516,2,23,2z M14,3c0-0.5512695,0.4482422-1,1-1c1.2646484,0,2.0800781,1.0849609,2.5429688,2H15 C14.4482422,4,14,3.5512695,14,3z"/> <path d="M30.9804688,23.8037109C30.9647827,23.7238159,30.6672363,22.3875732,29,21.5892944V11H9v5.5735474 C8.0363159,16.2115479,7.0100708,16,6,16H1c-0.5527344,0-1,0.4477539-1,1v7c0,0.3759766,0.2109375,0.7207031,0.546875,0.8911133 l11.2392578,5.7192383c0.7666016,0.3486328,1.5712891,0.5224609,2.3466797,0.5224609 c0.6855469,0,1.3486328-0.1357422,1.9433594-0.40625l14.2998047-5.7998047 C30.8212891,24.7460938,31.0751953,24.2749023,30.9804688,23.8037109z M15.2861328,28.8891602 c-0.7685547,0.3500977-1.7685547,0.3115234-2.6328125-0.0800781L2,23.3867188V18h4 c2.0078125,0,4.1806641,1.0742188,5.1679688,2.5546875C11.3535156,20.8330078,11.6660156,21,12,21h4 c1.1412354,0,2.3099365,0.9389648,2.7744141,2H11c-0.5527344,0-1,0.4477539-1,1s0.4472656,1,1,1h9c0.5527344,0,1-0.4477539,1-1 c0-0.3374023-0.0419922-0.6723633-0.1201172-1H26c1.2636719,0,2.0078125,0.2700195,2.4404297,0.5532227L15.2861328,28.8891602z"/></g></symbol><symbol id="icon-modpack-edit" viewBox="0 0 32 32"><g class="nc-icon-wrapper"><path d="M31,7H25.444A3.959,3.959,0,0,0,26,5a4,4,0,0,0-4-4c-3.13,0-5,2.386-6,4.323C15,3.386,13.13,1,10,1A4,4,0,0,0,6,5a3.959,3.959,0,0,0,.556,2H1A1,1,0,0,0,0,8v4a1,1,0,0,0,1,1H31a1,1,0,0,0,1-1V8A1,1,0,0,0,31,7ZM22,3a2,2,0,0,1,0,4H17.416C18.078,5.446,19.515,3,22,3ZM8,5a2,2,0,0,1,2-2c2.472,0,3.914,2.446,4.58,4H10A2,2,0,0,1,8,5Z"/> <path d="M18,31h7a4,4,0,0,0,4-4V15H18Z"/> <path d="M3,27a4,4,0,0,0,4,4h7V15H3Z"/></g></symbol></svg>